<svg width="144" height="49" viewBox="0 0 144 49" fill="none" xmlns="http://www.w3.org/2000/svg">
<path d="M44.9831 24.2808C44.9831 29.1703 44.1717 33.4356 42.5696 37.0767C40.9675 40.7177 38.4915 43.5474 35.1625 45.5864C31.8335 47.6254 27.61 48.6241 22.4916 48.6241C17.3733 48.6241 13.1496 47.6046 9.82057 45.5864C6.49158 43.5682 4.01572 40.7178 2.41364 37.0559C0.811564 33.394 0 29.1079 0 24.2184C0 19.3289 0.811564 15.0637 2.41364 11.4434C4.01572 7.82313 6.49158 5.0143 9.82057 3.0169C13.1496 1.0195 17.3941 0 22.554 0C27.714 0 31.8752 0.998698 35.1834 3.0169C38.4916 5.0143 40.9466 7.84393 42.5487 11.485C44.1508 15.1261 44.9623 19.3914 44.9623 24.2808H44.9831ZM10.5281 24.2808C10.5281 29.2119 11.4852 33.1027 13.3786 35.9531C15.2719 38.8036 18.3095 40.2184 22.5124 40.2184C26.7152 40.2184 29.857 38.8036 31.7087 35.9531C33.5605 33.1027 34.4969 29.2119 34.4969 24.2808C34.4969 19.3498 33.5605 15.459 31.7087 12.6086C29.857 9.75813 26.8192 8.34331 22.5747 8.34331C18.3303 8.34331 15.2719 9.75813 13.3786 12.6086C11.4852 15.459 10.5281 19.3498 10.5281 24.2808Z" fill="white"/>
<path d="M144 24.2808C144 29.1703 143.188 33.4356 141.586 37.0767C139.984 40.7177 137.508 43.5474 134.179 45.5864C130.85 47.6254 126.627 48.6241 121.508 48.6241C116.39 48.6241 112.166 47.6046 108.838 45.5864C105.509 43.5682 103.032 40.7178 101.43 37.0559C99.8283 33.394 99.0169 29.1079 99.0169 24.2184C99.0169 19.3289 99.8283 15.0637 101.43 11.4434C103.032 7.82313 105.509 5.0143 108.838 3.0169C112.166 1.0195 116.411 0 121.571 0C126.731 0 130.892 0.998698 134.2 3.0169C137.508 5.0143 139.964 7.84393 141.566 11.485C143.168 15.1261 143.979 19.3914 143.979 24.2808H144ZM109.545 24.2808C109.545 29.2119 110.502 33.1027 112.395 35.9531C114.289 38.8036 117.326 40.2184 121.529 40.2184C125.732 40.2184 128.874 38.8036 130.726 35.9531C132.577 33.1027 133.514 29.2119 133.514 24.2808C133.514 19.3498 132.577 15.459 130.726 12.6086C128.874 9.75813 125.836 8.34331 121.592 8.34331C117.347 8.34331 114.289 9.75813 112.395 12.6086C110.502 15.459 109.545 19.3498 109.545 24.2808Z" fill="white"/>
<path d="M61.3992 34.6215C61.3992 37.0142 62.2937 38.866 64.083 40.1352C65.8724 41.4043 68.3276 42.0494 71.4485 42.0494C74.5694 42.0494 77.0245 41.4668 78.7514 40.2808C80.4783 39.1157 81.3315 37.2223 81.3315 34.6215C81.3315 32.0207 81.1858 32.2288 80.9153 31.0221C80.6449 29.8153 80.2496 28.5045 79.7503 27.0897H85.0142C85.5344 28.3797 85.9296 29.6696 86.1793 30.9388C86.4289 32.208 86.5537 33.6228 86.5537 35.2041C86.5537 38.2626 85.9296 40.7801 84.6605 42.7359C83.4121 44.6917 81.6436 46.1482 79.3549 47.0845C77.087 48.0207 74.4238 48.4993 71.3861 48.4993C68.3484 48.4993 65.7685 47.9583 63.4798 46.8764C61.1911 45.7945 59.4017 44.234 58.0909 42.1742C56.8009 40.1144 56.1352 37.5968 56.1352 34.6215C56.1352 31.6462 56.3223 31.6878 56.6968 30.2106C57.0713 28.7334 57.5709 27.3186 58.2158 25.9662L63.3134 28.0052C62.7932 29.1079 62.3354 30.2106 61.94 31.3342C61.5447 32.4577 61.3575 33.5396 61.3575 34.6215H61.3992Z" fill="white"/>
</svg>
