<svg width="245" height="53" viewBox="0 0 245 53" fill="none" xmlns="http://www.w3.org/2000/svg">
<path d="M66.3128 11.7251H75.2425C79.053 11.7251 81.9318 12.2589 83.9104 13.3372C85.8784 14.405 86.8625 16.2998 86.8625 19.0007C86.8625 21.7016 86.4857 22.0156 85.7215 23.1462C84.9572 24.2768 83.8685 24.9573 82.4448 25.1981V25.3969C83.3869 25.6168 84.2454 25.9518 85.041 26.4228C85.8261 26.8939 86.4542 27.5849 86.9149 28.4956C87.3755 29.4064 87.5953 30.6103 87.5953 32.1178C87.5953 34.7139 86.6531 36.7553 84.7583 38.2314C82.8635 39.7074 80.2987 40.4402 77.064 40.4402H66.3337V11.7355L66.3128 11.7251ZM72.3741 23.0939H75.9124C77.6816 23.0939 78.9064 22.8217 79.5869 22.2669C80.2673 21.7225 80.6128 20.8955 80.6128 19.7963C80.6128 18.6971 80.215 17.9015 79.4089 17.4199C78.6028 16.9384 77.3361 16.6976 75.5879 16.6976H72.3741V23.0939ZM72.3741 35.3944H76.3521C78.1737 35.3944 79.4508 35.0384 80.1731 34.3266C80.8955 33.6147 81.2619 32.6726 81.2619 31.4896C81.2619 30.3067 80.8954 29.5529 80.1522 28.8934C79.4194 28.2339 78.0794 27.9094 76.1532 27.9094H72.3741V35.3944Z" fill="white"/>
<path d="M101.686 11.7251C105.601 11.7251 108.49 12.4369 110.354 13.8607C112.217 15.2844 113.149 17.4409 113.149 20.3302C113.149 23.2195 112.898 22.7903 112.406 23.7639C111.914 24.7374 111.254 25.575 110.438 26.2554C109.621 26.9359 108.742 27.4907 107.8 27.9199L116.237 40.4193H109.485L102.649 29.4064H99.3933V40.4193H93.3215V11.7146H101.686V11.7251ZM101.246 16.7081H99.3933V24.4653H101.361C103.371 24.4653 104.816 24.1303 105.685 23.4603C106.554 22.7903 106.993 21.7958 106.993 20.4873C106.993 19.1787 106.522 18.1527 105.591 17.577C104.648 17.0012 103.204 16.7081 101.246 16.7081Z" fill="white"/>
<path d="M145.905 26.0355C145.905 29.0086 145.413 31.6048 144.439 33.8136C143.465 36.0225 141.958 37.7498 139.938 38.9746C137.917 40.2099 135.352 40.8275 132.243 40.8275C129.134 40.8275 126.569 40.2099 124.549 38.9746C122.528 37.7393 121.021 36.012 120.047 33.7927C119.074 31.5734 118.582 28.9667 118.582 25.9937C118.582 23.0206 119.074 20.4349 120.047 18.2365C121.021 16.0381 122.528 14.3317 124.549 13.1069C126.569 11.8926 129.155 11.2749 132.285 11.2749C135.415 11.2749 137.959 11.8821 139.969 13.1069C141.979 14.3317 143.476 16.0381 144.449 18.2574C145.423 20.4663 145.915 23.0625 145.915 26.0355H145.905ZM124.968 26.0355C124.968 29.04 125.543 31.4059 126.695 33.1332C127.846 34.8605 129.699 35.7294 132.243 35.7294C134.787 35.7294 136.703 34.8605 137.833 33.1332C138.964 31.4059 139.519 29.04 139.519 26.0355C139.519 23.0311 138.953 20.6652 137.833 18.9379C136.703 17.2105 134.86 16.3417 132.285 16.3417C129.71 16.3417 127.846 17.2105 126.695 18.9379C125.543 20.6652 124.968 23.0311 124.968 26.0355Z" fill="white"/>
<path d="M205.596 26.0355C205.596 29.0086 205.104 31.6047 204.13 33.8136C203.157 36.0225 201.649 37.7498 199.629 38.9746C197.608 40.2099 195.044 40.8275 191.934 40.8275C188.825 40.8275 186.26 40.2099 184.24 38.9746C182.22 37.7393 180.712 36.012 179.739 33.7927C178.765 31.5734 178.273 28.9667 178.273 25.9937C178.273 23.0206 178.765 20.4349 179.739 18.2365C180.712 16.0381 182.22 14.3317 184.24 13.1069C186.26 11.8926 188.846 11.2749 191.976 11.2749C195.106 11.2749 197.65 11.8821 199.66 13.1069C201.67 14.3317 203.167 16.0381 204.141 18.2574C205.114 20.4662 205.606 23.0625 205.606 26.0355H205.596ZM184.648 26.0355C184.648 29.04 185.224 31.4058 186.376 33.1331C187.527 34.8605 189.38 35.7294 191.924 35.7294C194.468 35.7294 196.384 34.8605 197.514 33.1331C198.645 31.4058 199.2 29.04 199.2 26.0355C199.2 23.0311 198.634 20.6651 197.514 18.9378C196.384 17.2105 194.541 16.3417 191.966 16.3417C189.391 16.3417 187.527 17.2105 186.376 18.9378C185.224 20.6651 184.648 23.0311 184.648 26.0355Z" fill="white"/>
<path d="M211.543 40.4297V11.7251H217.614V35.4049H229.276V40.4297H211.543Z" fill="white"/>
<path d="M245 40.4297H231.935V36.9751L235.431 35.363V16.7918L231.935 15.1797V11.7251H245V15.1797L241.503 16.7918V35.363L245 36.9751V40.4297Z" fill="white"/>
<path d="M155.913 32.3062C155.913 33.7822 156.468 34.9128 157.567 35.6875C158.666 36.4726 160.184 36.86 162.1 36.86C164.015 36.86 165.533 36.5041 166.591 35.7817C167.648 35.0594 168.182 33.8974 168.182 32.3062C168.182 30.715 168.098 30.8406 167.931 30.0868C167.763 29.3436 167.522 28.5375 167.219 27.6686H170.453C170.778 28.4642 171.008 29.2598 171.165 30.0345C171.322 30.8196 171.396 31.6885 171.396 32.6516C171.396 34.5359 171.008 36.0748 170.234 37.2787C169.459 38.4826 168.381 39.3724 166.978 39.9482C165.575 40.524 163.942 40.8171 162.079 40.8171C160.215 40.8171 158.624 40.4821 157.221 39.8225C155.808 39.163 154.709 38.2 153.913 36.9333C153.118 35.6666 152.72 34.1172 152.72 32.2852C152.72 30.4532 152.835 30.4846 153.065 29.5739C153.296 28.6631 153.599 27.7942 153.997 26.9672L157.127 28.213C156.803 28.8934 156.52 29.5739 156.29 30.2648C156.049 30.9557 155.934 31.6257 155.934 32.2852L155.913 32.3062Z" fill="white"/>
<path d="M155.913 16.5929C155.913 18.069 156.468 19.1996 157.567 19.9743C158.666 20.7594 160.184 21.1467 162.1 21.1467C164.015 21.1467 165.533 20.7908 166.591 20.0685C167.648 19.3461 168.182 18.1946 168.182 16.5929C168.182 14.9912 168.098 15.1273 167.931 14.3736C167.763 13.6304 167.522 12.8243 167.219 11.9554H170.453C170.778 12.751 171.008 13.5466 171.165 14.3213C171.322 15.1064 171.396 15.9753 171.396 16.9384C171.396 18.8227 171.008 20.3616 170.234 21.5655C169.459 22.7693 168.381 23.6592 166.978 24.2349C165.575 24.8107 163.942 25.1038 162.079 25.1038C160.215 25.1038 158.624 24.7688 157.221 24.1093C155.808 23.4498 154.709 22.4867 153.913 21.22C153.118 19.9533 152.72 18.404 152.72 16.572C152.72 14.74 152.835 14.7714 153.065 13.8606C153.296 12.9499 153.599 12.081 153.997 11.254L157.127 12.4997C156.803 13.1802 156.52 13.8606 156.29 14.5515C156.049 15.2425 155.934 15.9125 155.934 16.572L155.913 16.5929Z" fill="white"/>
<path d="M39.1718 22.1786C38.1527 22.1786 37.4151 22.5208 36.9588 23.2052C36.5025 23.8896 36.2744 24.825 36.2744 26.0189C36.2744 27.2129 36.5025 28.1482 36.9588 28.8327C37.4151 29.5171 38.1452 29.8593 39.1566 29.8593C40.168 29.8593 40.9284 29.5171 41.3695 28.8327C41.8182 28.1482 42.0387 27.2129 42.0387 26.0189C42.0387 24.825 41.8182 23.8896 41.3695 23.2052C40.9208 22.5208 40.1908 22.1786 39.1718 22.1786Z" fill="white"/>
<path d="M49.651 33.3118C50.4571 30.8402 54.4495 28.7642 54.4495 26.0265C54.4495 23.2888 50.4571 21.2127 49.651 18.7412C48.8221 16.1784 50.7992 12.1555 49.2479 10.0262C47.6813 7.87411 43.2326 8.52052 41.0805 6.95395C38.9512 5.4026 38.1983 0.961491 35.6355 0.132581C33.164 -0.673514 29.9624 2.45958 27.2247 2.45958C24.4871 2.45958 21.2855 -0.66591 18.814 0.132581C16.2512 0.961491 15.506 5.4026 13.369 6.95395C11.2169 8.52052 6.76819 7.86651 5.20163 10.0262C3.65027 12.1555 5.63507 16.1784 4.79856 18.7412C3.99246 21.2127 0 23.2888 0 26.0265C0 28.7642 3.99246 30.8402 4.79856 33.3118C5.62747 35.8745 3.65027 39.8974 5.20163 42.0267C6.76819 44.1789 11.2169 43.5325 13.369 45.099C15.4984 46.6504 16.2512 51.0915 18.814 51.9204C21.2855 52.7265 24.4871 49.5934 27.2247 49.5934C29.9624 49.5934 33.164 52.7189 35.6355 51.9204C38.1983 51.0915 38.9436 46.6504 41.0805 45.099C43.2326 43.5325 47.6813 44.1865 49.2479 42.0267C50.7992 39.8974 48.8144 35.8745 49.651 33.3118ZM20.1372 29.0988C19.7494 29.9733 19.1562 30.6577 18.3501 31.1444C17.544 31.6311 16.5326 31.8745 15.3006 31.8745C14.0687 31.8745 13.0496 31.6311 12.2511 31.1444C11.445 30.6577 10.8519 29.9733 10.464 29.0912C10.0762 28.209 9.88608 27.1824 9.88608 25.9961C9.88608 24.8097 10.0762 23.7907 10.464 22.9238C10.8519 22.0492 11.445 21.3724 12.2511 20.8933C13.0496 20.4066 14.0763 20.1709 15.3158 20.1709C16.5554 20.1709 17.5668 20.4143 18.3577 20.8933C19.1562 21.38 19.7494 22.0568 20.1372 22.9314C20.525 23.8059 20.7152 24.8326 20.7152 26.0189C20.7152 27.2052 20.5174 28.2243 20.1372 29.1064V29.0988ZM30.2818 30.4676C29.9776 30.9391 29.5518 31.2889 29.0043 31.5171C28.4567 31.7452 27.8179 31.8593 27.0803 31.8593C26.3426 31.8593 25.7266 31.73 25.1715 31.4714C24.6163 31.2129 24.1905 30.8326 23.8711 30.3383C23.5593 29.844 23.3996 29.2357 23.3996 28.5208C23.3996 27.806 23.4452 27.8136 23.5365 27.4562C23.6277 27.0987 23.7494 26.7565 23.9015 26.4371L25.1259 26.9238C24.9966 27.19 24.8901 27.4562 24.7989 27.7299C24.7076 27.9961 24.662 28.2623 24.662 28.5208C24.662 29.0988 24.8749 29.5398 25.3084 29.8516C25.7419 30.1558 26.335 30.3079 27.0879 30.3079C27.8407 30.3079 28.4339 30.1634 28.8522 29.882C29.2704 29.6007 29.4757 29.1444 29.4757 28.5208C29.4757 27.8972 29.4453 27.9429 29.3769 27.6539C29.3084 27.3649 29.2172 27.0455 29.0955 26.7033H30.3655C30.4948 27.0151 30.586 27.3269 30.6468 27.6311C30.7077 27.9352 30.7381 28.2775 30.7381 28.6577C30.7381 29.3953 30.586 30.0037 30.2818 30.4752V30.4676ZM43.9931 29.0988C43.6052 29.9733 43.0121 30.6577 42.206 31.1444C41.3999 31.6311 40.3885 31.8745 39.1565 31.8745C37.9246 31.8745 36.9055 31.6311 36.107 31.1444C35.3009 30.6577 34.7078 29.9733 34.3199 29.0912C33.9321 28.209 33.742 27.1824 33.742 25.9961C33.742 24.8097 33.9321 23.7907 34.3199 22.9238C34.7078 22.0492 35.3009 21.3724 36.107 20.8933C36.9055 20.4066 37.9321 20.1709 39.1717 20.1709C40.4113 20.1709 41.4227 20.4143 42.2136 20.8933C43.0121 21.38 43.6052 22.0568 43.9931 22.9314C44.3809 23.8059 44.571 24.8326 44.571 26.0189C44.571 27.2052 44.3733 28.2243 43.9931 29.1064V29.0988Z" fill="white"/>
<path d="M15.3158 22.1786C14.2968 22.1786 13.5591 22.5208 13.1029 23.2052C12.6466 23.8896 12.4184 24.825 12.4184 26.0189C12.4184 27.2129 12.6466 28.1482 13.1029 28.8327C13.5591 29.5171 14.2892 29.8593 15.3006 29.8593C16.312 29.8593 17.0725 29.5171 17.5136 28.8327C17.9623 28.1482 18.1828 27.2129 18.1828 26.0189C18.1828 24.825 17.9623 23.8896 17.5136 23.2052C17.0649 22.5208 16.3349 22.1786 15.3158 22.1786Z" fill="white"/>
</svg>
